# MagicaVoxel @ Ephtracy

# material
mtllib CarvedGlowingBLock.mtl
usemtl palette

# normals
vn -1 0 0
vn 1 0 0
vn 0 0 1
vn 0 0 -1
vn 0 -1 0
vn 0 1 0

# texcoords
vt 0.306641 0.5
vt 0.669922 0.5
vt 0.880859 0.5
vt 0.884766 0.5
vt 0.892578 0.5
vt 0.908203 0.5

# verts
v -10 0 10
v -10 0 -10
v -10 3 7
v -10 3 -7
v -10 17 7
v -10 17 -7
v -10 20 10
v -10 20 -10
v -6 4 6
v -6 4 -6
v -6 5 5
v -6 5 -5
v -6 6 4
v -6 6 -4
v -6 7 3
v -6 7 -3
v -6 8 2
v -6 8 -2
v -6 9 1
v -6 9 -1
v -6 11 1
v -6 11 -1
v -6 12 2
v -6 12 -2
v -6 13 3
v -6 13 -3
v -6 14 4
v -6 14 -4
v -6 15 5
v -6 15 -5
v -6 16 6
v -6 16 -6
v -5 5 5
v -5 5 4
v -5 5 -4
v -5 5 -5
v -5 6 4
v -5 6 -4
v -5 7 3
v -5 7 -3
v -5 8 2
v -5 8 -2
v -5 9 1
v -5 9 -1
v -5 11 1
v -5 11 -1
v -5 12 2
v -5 12 -2
v -5 13 3
v -5 13 -3
v -5 14 4
v -5 14 -4
v -5 15 5
v -5 15 4
v -5 15 -4
v -5 15 -5
v -4 2 4
v -4 2 -4
v -4 3 4
v -4 3 -4
v -4 4 4
v -4 4 -4
v -4 6 6
v -4 6 5
v -4 6 -5
v -4 6 -6
v -4 14 6
v -4 14 5
v -4 14 -5
v -4 14 -6
v -4 16 4
v -4 16 -4
v -4 17 4
v -4 17 -4
v -4 18 4
v -4 18 -4
v -2 8 6
v -2 8 5
v -2 8 -5
v -2 8 -6
v -2 12 6
v -2 12 5
v -2 12 -5
v -2 12 -6
v 1 9 6
v 1 9 5
v 1 9 -5
v 1 9 -6
v 1 11 6
v 1 11 5
v 1 11 -5
v 1 11 -6
v 3 7 6
v 3 7 5
v 3 7 -5
v 3 7 -6
v 3 13 6
v 3 13 5
v 3 13 -5
v 3 13 -6
v 5 5 6
v 5 5 5
v 5 5 -5
v 5 5 -6
v 5 15 6
v 5 15 5
v 5 15 -5
v 5 15 -6
v 7 2 9
v 7 2 7
v 7 2 -7
v 7 2 -9
v 7 3 10
v 7 3 9
v 7 3 -9
v 7 3 -10
v 7 17 10
v 7 17 9
v 7 17 -9
v 7 17 -10
v 7 18 9
v 7 18 7
v 7 18 -7
v 7 18 -9
v 9 2 7
v 9 2 -7
v 9 3 7
v 9 3 -7
v 9 17 7
v 9 17 -7
v 9 18 7
v 9 18 -7
v -9 2 7
v -9 2 -7
v -9 3 7
v -9 3 -7
v -9 17 7
v -9 17 -7
v -9 18 7
v -9 18 -7
v -7 2 9
v -7 2 7
v -7 2 -7
v -7 2 -9
v -7 3 10
v -7 3 9
v -7 3 -9
v -7 3 -10
v -7 17 10
v -7 17 9
v -7 17 -9
v -7 17 -10
v -7 18 9
v -7 18 7
v -7 18 -7
v -7 18 -9
v -5 5 6
v -5 5 5
v -5 5 -5
v -5 5 -6
v -5 15 6
v -5 15 5
v -5 15 -5
v -5 15 -6
v -3 7 6
v -3 7 5
v -3 7 -5
v -3 7 -6
v -3 13 6
v -3 13 5
v -3 13 -5
v -3 13 -6
v -1 9 6
v -1 9 5
v -1 9 -5
v -1 9 -6
v -1 11 6
v -1 11 5
v -1 11 -5
v -1 11 -6
v 2 8 6
v 2 8 5
v 2 8 -5
v 2 8 -6
v 2 12 6
v 2 12 5
v 2 12 -5
v 2 12 -6
v 4 2 4
v 4 2 -4
v 4 3 4
v 4 3 -4
v 4 4 4
v 4 4 -4
v 4 6 6
v 4 6 5
v 4 6 -5
v 4 6 -6
v 4 14 6
v 4 14 5
v 4 14 -5
v 4 14 -6
v 4 16 4
v 4 16 -4
v 4 17 4
v 4 17 -4
v 4 18 4
v 4 18 -4
v 5 5 5
v 5 5 4
v 5 5 -4
v 5 5 -5
v 5 6 4
v 5 6 -4
v 5 7 3
v 5 7 -3
v 5 8 2
v 5 8 -2
v 5 9 1
v 5 9 -1
v 5 11 1
v 5 11 -1
v 5 12 2
v 5 12 -2
v 5 13 3
v 5 13 -3
v 5 14 4
v 5 14 -4
v 5 15 5
v 5 15 4
v 5 15 -4
v 5 15 -5
v 6 4 6
v 6 4 -6
v 6 5 5
v 6 5 -5
v 6 6 4
v 6 6 -4
v 6 7 3
v 6 7 -3
v 6 8 2
v 6 8 -2
v 6 9 1
v 6 9 -1
v 6 11 1
v 6 11 -1
v 6 12 2
v 6 12 -2
v 6 13 3
v 6 13 -3
v 6 14 4
v 6 14 -4
v 6 15 5
v 6 15 -5
v 6 16 6
v 6 16 -6
v 10 0 10
v 10 0 -10
v 10 3 7
v 10 3 -7
v 10 17 7
v 10 17 -7
v 10 20 10
v 10 20 -10
v -10 0 10
v -10 20 10
v -7 3 10
v -7 17 10
v 7 3 10
v 7 17 10
v 10 0 10
v 10 20 10
v -6 4 6
v -6 16 6
v -5 5 6
v -5 15 6
v -4 6 6
v -4 14 6
v -3 7 6
v -3 13 6
v -2 8 6
v -2 12 6
v -1 9 6
v -1 11 6
v 1 9 6
v 1 11 6
v 2 8 6
v 2 12 6
v 3 7 6
v 3 13 6
v 4 6 6
v 4 14 6
v 5 5 6
v 5 15 6
v 6 4 6
v 6 16 6
v -5 5 5
v -5 15 5
v -4 6 5
v -4 14 5
v -3 7 5
v -3 13 5
v -2 8 5
v -2 12 5
v -1 9 5
v -1 11 5
v 1 9 5
v 1 11 5
v 2 8 5
v 2 12 5
v 3 7 5
v 3 13 5
v 4 6 5
v 4 14 5
v 5 5 5
v 5 15 5
v -6 6 4
v -6 14 4
v -5 6 4
v -5 14 4
v -4 2 4
v -4 3 4
v -4 4 4
v -4 16 4
v -4 17 4
v -4 18 4
v 4 2 4
v 4 3 4
v 4 4 4
v 4 16 4
v 4 17 4
v 4 18 4
v 5 6 4
v 5 14 4
v 6 6 4
v 6 14 4
v -6 8 2
v -6 12 2
v -5 8 2
v -5 12 2
v 5 8 2
v 5 12 2
v 6 8 2
v 6 12 2
v -6 9 -1
v -6 11 -1
v -5 9 -1
v -5 11 -1
v 5 9 -1
v 5 11 -1
v 6 9 -1
v 6 11 -1
v -6 7 -3
v -6 13 -3
v -5 7 -3
v -5 13 -3
v 5 7 -3
v 5 13 -3
v 6 7 -3
v 6 13 -3
v -6 5 -5
v -6 15 -5
v -5 5 -5
v -5 15 -5
v 5 5 -5
v 5 15 -5
v 6 5 -5
v 6 15 -5
v -10 3 -7
v -10 17 -7
v -9 2 -7
v -9 3 -7
v -9 17 -7
v -9 18 -7
v -7 2 -7
v -7 18 -7
v 7 2 -7
v 7 18 -7
v 9 2 -7
v 9 3 -7
v 9 17 -7
v 9 18 -7
v 10 3 -7
v 10 17 -7
v -7 2 -9
v -7 3 -9
v -7 17 -9
v -7 18 -9
v 7 2 -9
v 7 3 -9
v 7 17 -9
v 7 18 -9
v -7 2 9
v -7 3 9
v -7 17 9
v -7 18 9
v 7 2 9
v 7 3 9
v 7 17 9
v 7 18 9
v -10 3 7
v -10 17 7
v -9 2 7
v -9 3 7
v -9 17 7
v -9 18 7
v -7 2 7
v -7 18 7
v 7 2 7
v 7 18 7
v 9 2 7
v 9 3 7
v 9 17 7
v 9 18 7
v 10 3 7
v 10 17 7
v -6 5 5
v -6 15 5
v -5 5 5
v -5 15 5
v 5 5 5
v 5 15 5
v 6 5 5
v 6 15 5
v -6 7 3
v -6 13 3
v -5 7 3
v -5 13 3
v 5 7 3
v 5 13 3
v 6 7 3
v 6 13 3
v -6 9 1
v -6 11 1
v -5 9 1
v -5 11 1
v 5 9 1
v 5 11 1
v 6 9 1
v 6 11 1
v -6 8 -2
v -6 12 -2
v -5 8 -2
v -5 12 -2
v 5 8 -2
v 5 12 -2
v 6 8 -2
v 6 12 -2
v -6 6 -4
v -6 14 -4
v -5 6 -4
v -5 14 -4
v -4 2 -4
v -4 3 -4
v -4 4 -4
v -4 16 -4
v -4 17 -4
v -4 18 -4
v 4 2 -4
v 4 3 -4
v 4 4 -4
v 4 16 -4
v 4 17 -4
v 4 18 -4
v 5 6 -4
v 5 14 -4
v 6 6 -4
v 6 14 -4
v -5 5 -5
v -5 15 -5
v -4 6 -5
v -4 14 -5
v -3 7 -5
v -3 13 -5
v -2 8 -5
v -2 12 -5
v -1 9 -5
v -1 11 -5
v 1 9 -5
v 1 11 -5
v 2 8 -5
v 2 12 -5
v 3 7 -5
v 3 13 -5
v 4 6 -5
v 4 14 -5
v 5 5 -5
v 5 15 -5
v -6 4 -6
v -6 16 -6
v -5 5 -6
v -5 15 -6
v -4 6 -6
v -4 14 -6
v -3 7 -6
v -3 13 -6
v -2 8 -6
v -2 12 -6
v -1 9 -6
v -1 11 -6
v 1 9 -6
v 1 11 -6
v 2 8 -6
v 2 12 -6
v 3 7 -6
v 3 13 -6
v 4 6 -6
v 4 14 -6
v 5 5 -6
v 5 15 -6
v 6 4 -6
v 6 16 -6
v -10 0 -10
v -10 20 -10
v -7 3 -10
v -7 17 -10
v 7 3 -10
v 7 17 -10
v 10 0 -10
v 10 20 -10
v -10 0 10
v 10 0 10
v -10 0 -10
v 10 0 -10
v -6 4 6
v 6 4 6
v -5 4 5
v 5 4 5
v -4 4 4
v 4 4 4
v -4 4 -4
v 4 4 -4
v -5 4 -5
v 5 4 -5
v -6 4 -6
v 6 4 -6
v -4 6 6
v 4 6 6
v -4 6 5
v 4 6 5
v -6 6 4
v -5 6 4
v 5 6 4
v 6 6 4
v -6 6 -4
v -5 6 -4
v 5 6 -4
v 6 6 -4
v -4 6 -5
v 4 6 -5
v -4 6 -6
v 4 6 -6
v -2 8 6
v 2 8 6
v -2 8 5
v 2 8 5
v -6 8 2
v -5 8 2
v 5 8 2
v 6 8 2
v -6 8 -2
v -5 8 -2
v 5 8 -2
v 6 8 -2
v -2 8 -5
v 2 8 -5
v -2 8 -6
v 2 8 -6
v -1 11 6
v 1 11 6
v -1 11 5
v 1 11 5
v -6 11 1
v -5 11 1
v 5 11 1
v 6 11 1
v -6 11 -1
v -5 11 -1
v 5 11 -1
v 6 11 -1
v -1 11 -5
v 1 11 -5
v -1 11 -6
v 1 11 -6
v -3 13 6
v 3 13 6
v -3 13 5
v 3 13 5
v -6 13 3
v -5 13 3
v 5 13 3
v 6 13 3
v -6 13 -3
v -5 13 -3
v 5 13 -3
v 6 13 -3
v -3 13 -5
v 3 13 -5
v -3 13 -6
v 3 13 -6
v -5 15 6
v 5 15 6
v -6 15 5
v -5 15 5
v 5 15 5
v 6 15 5
v -5 15 4
v 5 15 4
v -5 15 -4
v 5 15 -4
v -6 15 -5
v -5 15 -5
v 5 15 -5
v 6 15 -5
v -5 15 -6
v 5 15 -6
v -7 17 10
v 7 17 10
v -7 17 9
v 7 17 9
v -10 17 7
v -9 17 7
v 9 17 7
v 10 17 7
v -10 17 -7
v -9 17 -7
v 9 17 -7
v 10 17 -7
v -7 17 -9
v 7 17 -9
v -7 17 -10
v 7 17 -10
v -7 18 9
v 7 18 9
v -9 18 7
v -7 18 7
v 7 18 7
v 9 18 7
v -4 18 4
v 4 18 4
v -4 18 -4
v 4 18 -4
v -9 18 -7
v -7 18 -7
v 7 18 -7
v 9 18 -7
v -7 18 -9
v 7 18 -9
v -7 2 9
v 7 2 9
v -9 2 7
v -7 2 7
v 7 2 7
v 9 2 7
v -4 2 4
v 4 2 4
v -4 2 -4
v 4 2 -4
v -9 2 -7
v -7 2 -7
v 7 2 -7
v 9 2 -7
v -7 2 -9
v 7 2 -9
v -7 3 10
v 7 3 10
v -7 3 9
v 7 3 9
v -10 3 7
v -9 3 7
v 9 3 7
v 10 3 7
v -10 3 -7
v -9 3 -7
v 9 3 -7
v 10 3 -7
v -7 3 -9
v 7 3 -9
v -7 3 -10
v 7 3 -10
v -5 5 6
v 5 5 6
v -6 5 5
v -5 5 5
v 5 5 5
v 6 5 5
v -5 5 4
v 5 5 4
v -5 5 -4
v 5 5 -4
v -6 5 -5
v -5 5 -5
v 5 5 -5
v 6 5 -5
v -5 5 -6
v 5 5 -6
v -3 7 6
v 3 7 6
v -3 7 5
v 3 7 5
v -6 7 3
v -5 7 3
v 5 7 3
v 6 7 3
v -6 7 -3
v -5 7 -3
v 5 7 -3
v 6 7 -3
v -3 7 -5
v 3 7 -5
v -3 7 -6
v 3 7 -6
v -1 9 6
v 1 9 6
v -1 9 5
v 1 9 5
v -6 9 1
v -5 9 1
v 5 9 1
v 6 9 1
v -6 9 -1
v -5 9 -1
v 5 9 -1
v 6 9 -1
v -1 9 -5
v 1 9 -5
v -1 9 -6
v 1 9 -6
v -2 12 6
v 2 12 6
v -2 12 5
v 2 12 5
v -6 12 2
v -5 12 2
v 5 12 2
v 6 12 2
v -6 12 -2
v -5 12 -2
v 5 12 -2
v 6 12 -2
v -2 12 -5
v 2 12 -5
v -2 12 -6
v 2 12 -6
v -4 14 6
v 4 14 6
v -4 14 5
v 4 14 5
v -6 14 4
v -5 14 4
v 5 14 4
v 6 14 4
v -6 14 -4
v -5 14 -4
v 5 14 -4
v 6 14 -4
v -4 14 -5
v 4 14 -5
v -4 14 -6
v 4 14 -6
v -6 16 6
v 6 16 6
v -5 16 5
v 5 16 5
v -4 16 4
v 4 16 4
v -4 16 -4
v 4 16 -4
v -5 16 -5
v 5 16 -5
v -6 16 -6
v 6 16 -6
v -10 20 10
v 10 20 10
v -10 20 -10
v 10 20 -10

# faces
f 3/2/1 2/2/1 1/2/1
f 4/2/1 2/2/1 3/2/1
f 5/2/1 3/2/1 1/2/1
f 6/2/1 2/2/1 4/2/1
f 7/2/1 5/2/1 1/2/1
f 7/2/1 6/2/1 5/2/1
f 8/2/1 2/2/1 6/2/1
f 8/2/1 6/2/1 7/2/1
f 11/3/1 10/3/1 9/3/1
f 12/3/1 10/3/1 11/3/1
f 15/3/1 14/3/1 13/3/1
f 16/3/1 14/3/1 15/3/1
f 19/3/1 18/3/1 17/3/1
f 20/3/1 18/3/1 19/3/1
f 21/3/1 19/3/1 17/3/1
f 22/3/1 18/3/1 20/3/1
f 23/3/1 21/3/1 17/3/1
f 23/3/1 22/3/1 21/3/1
f 24/3/1 18/3/1 22/3/1
f 24/3/1 22/3/1 23/3/1
f 25/3/1 15/3/1 13/3/1
f 26/3/1 14/3/1 16/3/1
f 27/3/1 25/3/1 13/3/1
f 27/3/1 26/3/1 25/3/1
f 28/3/1 14/3/1 26/3/1
f 28/3/1 26/3/1 27/3/1
f 29/3/1 11/3/1 9/3/1
f 30/3/1 10/3/1 12/3/1
f 31/3/1 29/3/1 9/3/1
f 31/3/1 30/3/1 29/3/1
f 32/3/1 10/3/1 30/3/1
f 32/3/1 30/3/1 31/3/1
f 37/5/1 34/5/1 33/5/1
f 37/4/1 35/4/1 34/4/1
f 38/5/1 36/5/1 35/5/1
f 38/4/1 35/4/1 37/4/1
f 41/4/1 40/4/1 39/4/1
f 42/4/1 40/4/1 41/4/1
f 45/4/1 44/4/1 43/4/1
f 46/4/1 44/4/1 45/4/1
f 47/4/1 41/4/1 39/4/1
f 48/4/1 40/4/1 42/4/1
f 49/4/1 47/4/1 39/4/1
f 49/4/1 48/4/1 47/4/1
f 50/4/1 40/4/1 48/4/1
f 50/4/1 48/4/1 49/4/1
f 51/5/1 37/5/1 33/5/1
f 52/5/1 36/5/1 38/5/1
f 53/5/1 51/5/1 33/5/1
f 54/4/1 52/4/1 51/4/1
f 54/5/1 51/5/1 53/5/1
f 55/5/1 36/5/1 52/5/1
f 55/4/1 52/4/1 54/4/1
f 56/5/1 36/5/1 55/5/1
f 59/5/1 58/5/1 57/5/1
f 60/5/1 58/5/1 59/5/1
f 61/3/1 60/3/1 59/3/1
f 62/3/1 60/3/1 61/3/1
f 67/3/1 64/3/1 63/3/1
f 68/3/1 64/3/1 67/3/1
f 69/3/1 66/3/1 65/3/1
f 70/3/1 66/3/1 69/3/1
f 73/3/1 72/3/1 71/3/1
f 74/3/1 72/3/1 73/3/1
f 75/5/1 74/5/1 73/5/1
f 76/5/1 74/5/1 75/5/1
f 81/3/1 78/3/1 77/3/1
f 82/3/1 78/3/1 81/3/1
f 83/3/1 80/3/1 79/3/1
f 84/3/1 80/3/1 83/3/1
f 89/3/1 86/3/1 85/3/1
f 90/3/1 86/3/1 89/3/1
f 91/3/1 88/3/1 87/3/1
f 92/3/1 88/3/1 91/3/1
f 97/3/1 94/3/1 93/3/1
f 98/3/1 94/3/1 97/3/1
f 99/3/1 96/3/1 95/3/1
f 100/3/1 96/3/1 99/3/1
f 105/3/1 102/3/1 101/3/1
f 106/3/1 102/3/1 105/3/1
f 107/3/1 104/3/1 103/3/1
f 108/3/1 104/3/1 107/3/1
f 114/6/1 110/6/1 109/6/1
f 115/6/1 112/6/1 111/6/1
f 117/2/1 114/2/1 113/2/1
f 118/6/1 110/6/1 114/6/1
f 118/2/1 114/2/1 117/2/1
f 119/2/1 116/2/1 115/2/1
f 119/6/1 115/6/1 111/6/1
f 120/2/1 116/2/1 119/2/1
f 121/6/1 110/6/1 118/6/1
f 122/6/1 110/6/1 121/6/1
f 123/6/1 119/6/1 111/6/1
f 124/6/1 119/6/1 123/6/1
f 127/2/1 126/2/1 125/2/1
f 128/2/1 126/2/1 127/2/1
f 131/2/1 130/2/1 129/2/1
f 132/2/1 130/2/1 131/2/1
f 133/2/2 134/2/2 135/2/2
f 135/2/2 134/2/2 136/2/2
f 137/2/2 138/2/2 139/2/2
f 139/2/2 138/2/2 140/2/2
f 141/6/2 142/6/2 146/6/2
f 143/6/2 144/6/2 147/6/2
f 145/2/2 146/2/2 149/2/2
f 146/6/2 142/6/2 150/6/2
f 149/2/2 146/2/2 150/2/2
f 147/2/2 148/2/2 151/2/2
f 143/6/2 147/6/2 151/6/2
f 151/2/2 148/2/2 152/2/2
f 150/6/2 142/6/2 153/6/2
f 153/6/2 142/6/2 154/6/2
f 143/6/2 151/6/2 155/6/2
f 155/6/2 151/6/2 156/6/2
f 157/3/2 158/3/2 161/3/2
f 161/3/2 158/3/2 162/3/2
f 159/3/2 160/3/2 163/3/2
f 163/3/2 160/3/2 164/3/2
f 165/3/2 166/3/2 169/3/2
f 169/3/2 166/3/2 170/3/2
f 167/3/2 168/3/2 171/3/2
f 171/3/2 168/3/2 172/3/2
f 173/3/2 174/3/2 177/3/2
f 177/3/2 174/3/2 178/3/2
f 175/3/2 176/3/2 179/3/2
f 179/3/2 176/3/2 180/3/2
f 181/3/2 182/3/2 185/3/2
f 185/3/2 182/3/2 186/3/2
f 183/3/2 184/3/2 187/3/2
f 187/3/2 184/3/2 188/3/2
f 189/5/2 190/5/2 191/5/2
f 191/5/2 190/5/2 192/5/2
f 191/3/2 192/3/2 193/3/2
f 193/3/2 192/3/2 194/3/2
f 195/3/2 196/3/2 199/3/2
f 199/3/2 196/3/2 200/3/2
f 197/3/2 198/3/2 201/3/2
f 201/3/2 198/3/2 202/3/2
f 203/3/2 204/3/2 205/3/2
f 205/3/2 204/3/2 206/3/2
f 205/5/2 206/5/2 207/5/2
f 207/5/2 206/5/2 208/5/2
f 209/5/2 210/5/2 213/5/2
f 210/4/2 211/4/2 213/4/2
f 211/5/2 212/5/2 214/5/2
f 213/4/2 211/4/2 214/4/2
f 215/4/2 216/4/2 217/4/2
f 217/4/2 216/4/2 218/4/2
f 219/4/2 220/4/2 221/4/2
f 221/4/2 220/4/2 222/4/2
f 215/4/2 217/4/2 223/4/2
f 218/4/2 216/4/2 224/4/2
f 215/4/2 223/4/2 225/4/2
f 223/4/2 224/4/2 225/4/2
f 224/4/2 216/4/2 226/4/2
f 225/4/2 224/4/2 226/4/2
f 209/5/2 213/5/2 227/5/2
f 214/5/2 212/5/2 228/5/2
f 209/5/2 227/5/2 229/5/2
f 227/4/2 228/4/2 230/4/2
f 229/5/2 227/5/2 230/5/2
f 228/5/2 212/5/2 231/5/2
f 230/4/2 228/4/2 231/4/2
f 231/5/2 212/5/2 232/5/2
f 233/3/2 234/3/2 235/3/2
f 235/3/2 234/3/2 236/3/2
f 237/3/2 238/3/2 239/3/2
f 239/3/2 238/3/2 240/3/2
f 241/3/2 242/3/2 243/3/2
f 243/3/2 242/3/2 244/3/2
f 241/3/2 243/3/2 245/3/2
f 244/3/2 242/3/2 246/3/2
f 241/3/2 245/3/2 247/3/2
f 245/3/2 246/3/2 247/3/2
f 246/3/2 242/3/2 248/3/2
f 247/3/2 246/3/2 248/3/2
f 237/3/2 239/3/2 249/3/2
f 240/3/2 238/3/2 250/3/2
f 237/3/2 249/3/2 251/3/2
f 249/3/2 250/3/2 251/3/2
f 250/3/2 238/3/2 252/3/2
f 251/3/2 250/3/2 252/3/2
f 233/3/2 235/3/2 253/3/2
f 236/3/2 234/3/2 254/3/2
f 233/3/2 253/3/2 255/3/2
f 253/3/2 254/3/2 255/3/2
f 254/3/2 234/3/2 256/3/2
f 255/3/2 254/3/2 256/3/2
f 257/2/2 258/2/2 259/2/2
f 259/2/2 258/2/2 260/2/2
f 257/2/2 259/2/2 261/2/2
f 260/2/2 258/2/2 262/2/2
f 257/2/2 261/2/2 263/2/2
f 261/2/2 262/2/2 263/2/2
f 262/2/2 258/2/2 264/2/2
f 263/2/2 262/2/2 264/2/2
f 267/2/3 266/2/3 265/2/3
f 268/2/3 266/2/3 267/2/3
f 269/2/3 267/2/3 265/2/3
f 270/2/3 266/2/3 268/2/3
f 271/2/3 269/2/3 265/2/3
f 271/2/3 270/2/3 269/2/3
f 272/2/3 266/2/3 270/2/3
f 272/2/3 270/2/3 271/2/3
f 275/3/3 274/3/3 273/3/3
f 276/3/3 274/3/3 275/3/3
f 279/3/3 278/3/3 277/3/3
f 280/3/3 278/3/3 279/3/3
f 283/3/3 282/3/3 281/3/3
f 284/3/3 282/3/3 283/3/3
f 285/3/3 283/3/3 281/3/3
f 286/3/3 282/3/3 284/3/3
f 287/3/3 285/3/3 281/3/3
f 287/3/3 286/3/3 285/3/3
f 288/3/3 282/3/3 286/3/3
f 288/3/3 286/3/3 287/3/3
f 289/3/3 279/3/3 277/3/3
f 290/3/3 278/3/3 280/3/3
f 291/3/3 289/3/3 277/3/3
f 291/3/3 290/3/3 289/3/3
f 292/3/3 278/3/3 290/3/3
f 292/3/3 290/3/3 291/3/3
f 293/3/3 275/3/3 273/3/3
f 294/3/3 274/3/3 276/3/3
f 295/3/3 293/3/3 273/3/3
f 295/3/3 294/3/3 293/3/3
f 296/3/3 274/3/3 294/3/3
f 296/3/3 294/3/3 295/3/3
f 299/5/3 298/5/3 297/5/3
f 300/5/3 298/5/3 299/5/3
f 303/5/3 302/5/3 301/5/3
f 304/5/3 302/5/3 303/5/3
f 307/5/3 306/5/3 305/5/3
f 308/5/3 306/5/3 307/5/3
f 309/5/3 303/5/3 301/5/3
f 310/5/3 302/5/3 304/5/3
f 311/5/3 309/5/3 301/5/3
f 311/5/3 310/5/3 309/5/3
f 312/5/3 302/5/3 310/5/3
f 312/5/3 310/5/3 311/5/3
f 313/5/3 299/5/3 297/5/3
f 314/5/3 298/5/3 300/5/3
f 315/5/3 313/5/3 297/5/3
f 315/5/3 314/5/3 313/5/3
f 316/5/3 298/5/3 314/5/3
f 316/5/3 314/5/3 315/5/3
f 319/3/3 318/3/3 317/3/3
f 320/3/3 318/3/3 319/3/3
f 327/5/3 322/5/3 321/5/3
f 328/3/3 323/3/3 322/3/3
f 328/5/3 322/5/3 327/5/3
f 329/3/3 323/3/3 328/3/3
f 330/3/3 325/3/3 324/3/3
f 331/5/3 326/5/3 325/5/3
f 331/3/3 325/3/3 330/3/3
f 332/5/3 326/5/3 331/5/3
f 335/3/3 334/3/3 333/3/3
f 336/3/3 334/3/3 335/3/3
f 339/3/3 338/3/3 337/3/3
f 340/3/3 338/3/3 339/3/3
f 343/3/3 342/3/3 341/3/3
f 344/3/3 342/3/3 343/3/3
f 347/3/3 346/3/3 345/3/3
f 348/3/3 346/3/3 347/3/3
f 351/3/3 350/3/3 349/3/3
f 352/3/3 350/3/3 351/3/3
f 355/3/3 354/3/3 353/3/3
f 356/3/3 354/3/3 355/3/3
f 359/3/3 358/3/3 357/3/3
f 360/3/3 358/3/3 359/3/3
f 363/3/3 362/3/3 361/3/3
f 364/3/3 362/3/3 363/3/3
f 367/3/3 366/3/3 365/3/3
f 368/3/3 366/3/3 367/3/3
f 372/2/3 370/2/3 369/2/3
f 373/2/3 370/2/3 372/2/3
f 375/6/3 372/6/3 371/6/3
f 375/6/3 374/6/3 373/6/3
f 375/6/3 373/6/3 372/6/3
f 376/6/3 374/6/3 375/6/3
f 379/6/3 378/6/3 377/6/3
f 380/6/3 378/6/3 379/6/3
f 381/6/3 378/6/3 380/6/3
f 382/6/3 378/6/3 381/6/3
f 383/2/3 381/2/3 380/2/3
f 384/2/3 381/2/3 383/2/3
f 389/2/3 386/2/3 385/2/3
f 390/2/3 386/2/3 389/2/3
f 391/2/3 388/2/3 387/2/3
f 392/2/3 388/2/3 391/2/3
f 393/2/4 394/2/4 397/2/4
f 397/2/4 394/2/4 398/2/4
f 395/2/4 396/2/4 399/2/4
f 399/2/4 396/2/4 400/2/4
f 401/2/4 402/2/4 404/2/4
f 404/2/4 402/2/4 405/2/4
f 403/6/4 404/6/4 407/6/4
f 405/6/4 406/6/4 407/6/4
f 404/6/4 405/6/4 407/6/4
f 407/6/4 406/6/4 408/6/4
f 409/6/4 410/6/4 411/6/4
f 411/6/4 410/6/4 412/6/4
f 412/6/4 410/6/4 413/6/4
f 413/6/4 410/6/4 414/6/4
f 412/2/4 413/2/4 415/2/4
f 415/2/4 413/2/4 416/2/4
f 417/3/4 418/3/4 419/3/4
f 419/3/4 418/3/4 420/3/4
f 421/3/4 422/3/4 423/3/4
f 423/3/4 422/3/4 424/3/4
f 425/3/4 426/3/4 427/3/4
f 427/3/4 426/3/4 428/3/4
f 429/3/4 430/3/4 431/3/4
f 431/3/4 430/3/4 432/3/4
f 433/3/4 434/3/4 435/3/4
f 435/3/4 434/3/4 436/3/4
f 437/3/4 438/3/4 439/3/4
f 439/3/4 438/3/4 440/3/4
f 441/3/4 442/3/4 443/3/4
f 443/3/4 442/3/4 444/3/4
f 445/3/4 446/3/4 447/3/4
f 447/3/4 446/3/4 448/3/4
f 449/3/4 450/3/4 451/3/4
f 451/3/4 450/3/4 452/3/4
f 453/5/4 454/5/4 459/5/4
f 454/3/4 455/3/4 460/3/4
f 459/5/4 454/5/4 460/5/4
f 460/3/4 455/3/4 461/3/4
f 456/3/4 457/3/4 462/3/4
f 457/5/4 458/5/4 463/5/4
f 462/3/4 457/3/4 463/3/4
f 463/5/4 458/5/4 464/5/4
f 465/3/4 466/3/4 467/3/4
f 467/3/4 466/3/4 468/3/4
f 469/5/4 470/5/4 471/5/4
f 471/5/4 470/5/4 472/5/4
f 473/5/4 474/5/4 475/5/4
f 475/5/4 474/5/4 476/5/4
f 477/5/4 478/5/4 479/5/4
f 479/5/4 478/5/4 480/5/4
f 473/5/4 475/5/4 481/5/4
f 476/5/4 474/5/4 482/5/4
f 473/5/4 481/5/4 483/5/4
f 481/5/4 482/5/4 483/5/4
f 482/5/4 474/5/4 484/5/4
f 483/5/4 482/5/4 484/5/4
f 469/5/4 471/5/4 485/5/4
f 472/5/4 470/5/4 486/5/4
f 469/5/4 485/5/4 487/5/4
f 485/5/4 486/5/4 487/5/4
f 486/5/4 470/5/4 488/5/4
f 487/5/4 486/5/4 488/5/4
f 489/3/4 490/3/4 491/3/4
f 491/3/4 490/3/4 492/3/4
f 493/3/4 494/3/4 495/3/4
f 495/3/4 494/3/4 496/3/4
f 497/3/4 498/3/4 499/3/4
f 499/3/4 498/3/4 500/3/4
f 497/3/4 499/3/4 501/3/4
f 500/3/4 498/3/4 502/3/4
f 497/3/4 501/3/4 503/3/4
f 501/3/4 502/3/4 503/3/4
f 502/3/4 498/3/4 504/3/4
f 503/3/4 502/3/4 504/3/4
f 493/3/4 495/3/4 505/3/4
f 496/3/4 494/3/4 506/3/4
f 493/3/4 505/3/4 507/3/4
f 505/3/4 506/3/4 507/3/4
f 506/3/4 494/3/4 508/3/4
f 507/3/4 506/3/4 508/3/4
f 489/3/4 491/3/4 509/3/4
f 492/3/4 490/3/4 510/3/4
f 489/3/4 509/3/4 511/3/4
f 509/3/4 510/3/4 511/3/4
f 510/3/4 490/3/4 512/3/4
f 511/3/4 510/3/4 512/3/4
f 513/2/4 514/2/4 515/2/4
f 515/2/4 514/2/4 516/2/4
f 513/2/4 515/2/4 517/2/4
f 516/2/4 514/2/4 518/2/4
f 513/2/4 517/2/4 519/2/4
f 517/2/4 518/2/4 519/2/4
f 518/2/4 514/2/4 520/2/4
f 519/2/4 518/2/4 520/2/4
f 523/2/5 522/2/5 521/2/5
f 524/2/5 522/2/5 523/2/5
f 527/3/5 526/3/5 525/3/5
f 528/3/5 526/3/5 527/3/5
f 529/4/5 528/4/5 527/4/5
f 530/4/5 528/4/5 529/4/5
f 531/4/5 529/4/5 527/4/5
f 532/4/5 528/4/5 530/4/5
f 533/3/5 527/3/5 525/3/5
f 533/4/5 532/4/5 531/4/5
f 533/4/5 531/4/5 527/4/5
f 534/4/5 528/4/5 532/4/5
f 534/4/5 532/4/5 533/4/5
f 534/3/5 526/3/5 528/3/5
f 535/3/5 533/3/5 525/3/5
f 535/3/5 534/3/5 533/3/5
f 536/3/5 526/3/5 534/3/5
f 536/3/5 534/3/5 535/3/5
f 539/3/5 538/3/5 537/3/5
f 540/3/5 538/3/5 539/3/5
f 545/3/5 542/3/5 541/3/5
f 546/3/5 542/3/5 545/3/5
f 547/3/5 544/3/5 543/3/5
f 548/3/5 544/3/5 547/3/5
f 551/3/5 550/3/5 549/3/5
f 552/3/5 550/3/5 551/3/5
f 555/3/5 554/3/5 553/3/5
f 556/3/5 554/3/5 555/3/5
f 561/3/5 558/3/5 557/3/5
f 562/3/5 558/3/5 561/3/5
f 563/3/5 560/3/5 559/3/5
f 564/3/5 560/3/5 563/3/5
f 567/3/5 566/3/5 565/3/5
f 568/3/5 566/3/5 567/3/5
f 571/3/5 570/3/5 569/3/5
f 572/3/5 570/3/5 571/3/5
f 577/3/5 574/3/5 573/3/5
f 578/3/5 574/3/5 577/3/5
f 579/3/5 576/3/5 575/3/5
f 580/3/5 576/3/5 579/3/5
f 583/3/5 582/3/5 581/3/5
f 584/3/5 582/3/5 583/3/5
f 587/3/5 586/3/5 585/3/5
f 588/3/5 586/3/5 587/3/5
f 593/3/5 590/3/5 589/3/5
f 594/3/5 590/3/5 593/3/5
f 595/3/5 592/3/5 591/3/5
f 596/3/5 592/3/5 595/3/5
f 599/3/5 598/3/5 597/3/5
f 600/3/5 598/3/5 599/3/5
f 604/3/5 602/3/5 601/3/5
f 605/3/5 602/3/5 604/3/5
f 607/3/5 604/3/5 603/3/5
f 608/3/5 606/3/5 605/3/5
f 609/3/5 607/3/5 603/3/5
f 610/3/5 606/3/5 608/3/5
f 611/3/5 609/3/5 603/3/5
f 612/3/5 609/3/5 611/3/5
f 613/3/5 606/3/5 610/3/5
f 614/3/5 606/3/5 613/3/5
f 615/3/5 613/3/5 612/3/5
f 616/3/5 613/3/5 615/3/5
f 619/2/5 618/2/5 617/2/5
f 620/2/5 618/2/5 619/2/5
f 625/2/5 622/2/5 621/2/5
f 626/2/5 622/2/5 625/2/5
f 627/2/5 624/2/5 623/2/5
f 628/2/5 624/2/5 627/2/5
f 631/2/5 630/2/5 629/2/5
f 632/2/5 630/2/5 631/2/5
f 636/6/5 634/6/5 633/6/5
f 637/6/5 634/6/5 636/6/5
f 639/6/5 636/6/5 635/6/5
f 639/6/5 638/6/5 637/6/5
f 639/6/5 637/6/5 636/6/5
f 640/6/5 638/6/5 639/6/5
f 641/6/5 639/6/5 635/6/5
f 642/6/5 638/6/5 640/6/5
f 643/6/5 641/6/5 635/6/5
f 643/6/5 642/6/5 641/6/5
f 644/6/5 642/6/5 643/6/5
f 645/6/5 638/6/5 642/6/5
f 645/6/5 642/6/5 644/6/5
f 646/6/5 638/6/5 645/6/5
f 647/6/5 645/6/5 644/6/5
f 648/6/5 645/6/5 647/6/5
f 649/6/6 650/6/6 652/6/6
f 652/6/6 650/6/6 653/6/6
f 651/6/6 652/6/6 655/6/6
f 653/6/6 654/6/6 655/6/6
f 652/6/6 653/6/6 655/6/6
f 655/6/6 654/6/6 656/6/6
f 651/6/6 655/6/6 657/6/6
f 656/6/6 654/6/6 658/6/6
f 651/6/6 657/6/6 659/6/6
f 657/6/6 658/6/6 659/6/6
f 659/6/6 658/6/6 660/6/6
f 658/6/6 654/6/6 661/6/6
f 660/6/6 658/6/6 661/6/6
f 661/6/6 654/6/6 662/6/6
f 660/6/6 661/6/6 663/6/6
f 663/6/6 661/6/6 664/6/6
f 665/2/6 666/2/6 667/2/6
f 667/2/6 666/2/6 668/2/6
f 669/2/6 670/2/6 673/2/6
f 673/2/6 670/2/6 674/2/6
f 671/2/6 672/2/6 675/2/6
f 675/2/6 672/2/6 676/2/6
f 677/2/6 678/2/6 679/2/6
f 679/2/6 678/2/6 680/2/6
f 681/3/6 682/3/6 684/3/6
f 684/3/6 682/3/6 685/3/6
f 683/3/6 684/3/6 687/3/6
f 685/3/6 686/3/6 688/3/6
f 683/3/6 687/3/6 689/3/6
f 688/3/6 686/3/6 690/3/6
f 683/3/6 689/3/6 691/3/6
f 691/3/6 689/3/6 692/3/6
f 690/3/6 686/3/6 693/3/6
f 693/3/6 686/3/6 694/3/6
f 692/3/6 693/3/6 695/3/6
f 695/3/6 693/3/6 696/3/6
f 697/3/6 698/3/6 699/3/6
f 699/3/6 698/3/6 700/3/6
f 701/3/6 702/3/6 705/3/6
f 705/3/6 702/3/6 706/3/6
f 703/3/6 704/3/6 707/3/6
f 707/3/6 704/3/6 708/3/6
f 709/3/6 710/3/6 711/3/6
f 711/3/6 710/3/6 712/3/6
f 713/3/6 714/3/6 715/3/6
f 715/3/6 714/3/6 716/3/6
f 717/3/6 718/3/6 721/3/6
f 721/3/6 718/3/6 722/3/6
f 719/3/6 720/3/6 723/3/6
f 723/3/6 720/3/6 724/3/6
f 725/3/6 726/3/6 727/3/6
f 727/3/6 726/3/6 728/3/6
f 729/3/6 730/3/6 731/3/6
f 731/3/6 730/3/6 732/3/6
f 733/3/6 734/3/6 737/3/6
f 737/3/6 734/3/6 738/3/6
f 735/3/6 736/3/6 739/3/6
f 739/3/6 736/3/6 740/3/6
f 741/3/6 742/3/6 743/3/6
f 743/3/6 742/3/6 744/3/6
f 745/3/6 746/3/6 747/3/6
f 747/3/6 746/3/6 748/3/6
f 749/3/6 750/3/6 753/3/6
f 753/3/6 750/3/6 754/3/6
f 751/3/6 752/3/6 755/3/6
f 755/3/6 752/3/6 756/3/6
f 757/3/6 758/3/6 759/3/6
f 759/3/6 758/3/6 760/3/6
f 761/3/6 762/3/6 763/3/6
f 763/3/6 762/3/6 764/3/6
f 763/4/6 764/4/6 765/4/6
f 765/4/6 764/4/6 766/4/6
f 763/4/6 765/4/6 767/4/6
f 766/4/6 764/4/6 768/4/6
f 761/3/6 763/3/6 769/3/6
f 767/4/6 768/4/6 769/4/6
f 763/4/6 767/4/6 769/4/6
f 768/4/6 764/4/6 770/4/6
f 769/4/6 768/4/6 770/4/6
f 764/3/6 762/3/6 770/3/6
f 761/3/6 769/3/6 771/3/6
f 769/3/6 770/3/6 771/3/6
f 770/3/6 762/3/6 772/3/6
f 771/3/6 770/3/6 772/3/6
f 773/2/6 774/2/6 775/2/6
f 775/2/6 774/2/6 776/2/6
